<svg width="1480" height="1099" viewBox="0 0 1480 1099" fill="none" xmlns="http://www.w3.org/2000/svg">
<style id="plan-theme-styles">
  a[data-room] { cursor: pointer; }
  a[data-room] text, a[data-room] tspan { pointer-events: none !important; user-select: none !important; }
  
  /* 1. Default room fill & stroke */
  a[data-room] .room-area, g[data-room] .room-area, polygon.room-area, path.room-area, rect.room-area {
    fill: rgba(120, 113, 108, 0.12) !important;
    stroke: rgba(120, 113, 108, 0.4) !important;
    stroke-width: 1px !important;
    pointer-events: all !important;
    transition: fill 0.15s ease, stroke 0.15s ease;
  }

  /* 2. Passive Occupied & Filtered room glow (Orange) */
  a[data-room][data-occupied="true"] .room-area, g[data-room][data-occupied="true"] .room-area,
  a[data-room][data-filtered="true"] .room-area, g[data-room][data-filtered="true"] .room-area {
    fill: rgba(249, 115, 22, 0.32) !important;
    stroke: #f97316 !important;
    stroke-width: 1.5px !important;
  }

  /* 3. Selected / Active room (Blue Filled) */
  a[data-room][data-active="true"] .room-area, g[data-room][data-active="true"] .room-area,
  a[data-room][data-selected="true"] .room-area, g[data-room][data-selected="true"] .room-area {
    fill: rgba(37, 99, 235, 0.75) !important;
    stroke: #2563eb !important;
    stroke-width: 2.5px !important;
  }

  /* 4. Hover state (Blue) — TOP PRIORITY (Overrides passive orange, active, default) */
  a[data-room]:hover .room-area, a[data-room][data-hover="true"] .room-area,
  a[data-room][data-occupied="true"]:hover .room-area, a[data-room][data-occupied="true"][data-hover="true"] .room-area,
  a[data-room][data-active="true"]:hover .room-area, a[data-room][data-active="true"][data-hover="true"] .room-area {
    fill: rgba(59, 130, 246, 0.55) !important;
    stroke: #3b82f6 !important;
    stroke-width: 2.5px !important;
    cursor: pointer !important;
  }
</style>
<g id="Foyer_1">
<path id="Vector 44" d="M150.5 448H111V332.5M150.5 448V510M150.5 448H332.5V332.5M150.5 510H48.5V803H229.5M150.5 510H229.5M479.5 803V891.5L599 908.701M479.5 803H229.5M479.5 803V721.5M1007.5 967.5V1040.5M599 908.701L752 930.723L1007.5 967.5M1007.5 967.5H1046.5M1216 967.5V743M1216 967.5V1040.5H1007.5M1216 967.5H1046.5M580.5 782.702V838H729.5L764.5 782.702L1123.5 215.5L1432 399.5L1216 743M1216 743H1028V785.5M764.5 782.702V587.5M764.5 782.702H580.5M680 390H764.5V510M680 390V315M680 390H544.5V467.5M680 315H725.5V98H565M680 315H563M404.5 176V98H565M404.5 176H332.5M404.5 176V245.5M332.5 176V126.5H111V218.5M332.5 176V238H302.5V263.25M599 908.701V1040.5H752M1007.5 1040.5H752M752 930.723V1040.5M1028 803H1046.5V967.5M1028 803L906 870.5V881L969 918.5L960.5 931L894.5 890L889.5 876L894.5 861.5L1028 785.5M1028 803V785.5M229.5 510V656.5M229.5 510H369.5M229.5 803V656.5M229.5 656.5H369.5M479.5 656.5V510H369.5M479.5 656.5H369.5M479.5 656.5V721.5M369.5 656.5V510M111 332.5H332.5M111 332.5V218.5M332.5 332.5V288.5H302.5V263.25M302.5 263.25L229.5 255.5L215 218.5H111M563 315H404.5V245.5M565 98L563.641 245.5L563 315M404.5 245.5H563.641M544.5 467.5H641V510H764.5M544.5 467.5V587.5M764.5 510V587.5M764.5 587.5H544.5M544.5 587.5V721.5M479.5 721.5H544.5M544.5 721.5V782.702H580.5" stroke="white" stroke-width="2"/>
<a data-room="F1-1" class="cursor-pointer group">
<polygon class="room-area" points="50.5,512.0 50.5,801.0 227.5,801.0 227.5,512.0" fill="rgba(120, 113, 108, 0.12)" stroke="white" stroke-width="2" pointer-events="all" />
<text class="room-label" pointer-events="none" fill="white" id="F1-1" style="white-space: pre" xml:space="preserve" font-family="Inter" font-size="32" letter-spacing="0em"><tspan x="96" y="657.136">F1-1</tspan></text>
</a>
<a data-room="F1-3" class="cursor-pointer group">
<polygon class="room-area" points="371.5,512.0 371.5,654.5 477.5,654.5 477.5,512.0" fill="rgba(120, 113, 108, 0.12)" stroke="white" stroke-width="2" pointer-events="all" />
<text class="room-label" pointer-events="none" fill="white" id="F1-3" style="white-space: pre" xml:space="preserve" font-family="Inter" font-size="32" letter-spacing="0em"><tspan x="383" y="600.136">F1-3</tspan></text>
</a>
<a data-room="F1-4" class="cursor-pointer group">
<polygon class="room-area" points="601.0,911.0 601.0,1038.5 750.0,1038.5 750.0,932.0" fill="rgba(120, 113, 108, 0.12)" stroke="white" stroke-width="2" pointer-events="all" />
<text class="room-label" pointer-events="none" fill="white" id="F1-4" style="white-space: pre" xml:space="preserve" font-family="Inter" font-size="32" letter-spacing="0em"><tspan x="645" y="995.136">F1-4</tspan></text>
</a>
<a data-room="F1-5" class="cursor-pointer group">
<polygon class="room-area" points="1009.5,969.5 1009.5,1038.5 1214.0,1038.5 1214.0,969.5" fill="rgba(120, 113, 108, 0.12)" stroke="white" stroke-width="2" pointer-events="all" />
<text class="room-label" pointer-events="none" fill="white" id="F1-5" style="white-space: pre" xml:space="preserve" font-family="Inter" font-size="32" letter-spacing="0em"><tspan x="1070" y="1015.14">F1-5</tspan></text>
</a>
<a data-room="F1-6" class="cursor-pointer group">
<polygon class="room-area" points="1030.0,745.0 1030.0,801.0 1048.5,803.0 1048.5,965.5 1214.0,965.5 1214.0,745.0" fill="rgba(120, 113, 108, 0.12)" stroke="white" stroke-width="2" pointer-events="all" />
<text class="room-label" pointer-events="none" fill="white" id="F1-6" style="white-space: pre" xml:space="preserve" font-family="Inter" font-size="32" letter-spacing="0em"><tspan x="1096" y="863.136">F1-6</tspan></text>
</a>
<a data-room="F1-7" class="cursor-pointer group">
<polygon class="room-area" points="1429.0,400.0 1124.0,218.5 731.5,839.0 580.5,840.0 542.5,723.5 481.5,723.5 481.5,890.0 1044.5,965.5 1044.5,805.0 908.0,871.5 960.5,933.0 892.5,861.0 1028.0,741.0 1215.0,741.0" fill="rgba(120, 113, 108, 0.12)" stroke="white" stroke-width="2" pointer-events="all" />
<text class="room-label" pointer-events="none" fill="white" id="F1-7" style="white-space: pre" xml:space="preserve" font-family="Inter" font-size="32" letter-spacing="0em"><tspan x="1080" y="568.136">F1-7</tspan></text>
</a>
<a data-room="F1-2" class="cursor-pointer group">
<polygon class="room-area" points="231.5,658.5 231.5,801.0 477.5,801.0 477.5,658.5" fill="rgba(120, 113, 108, 0.12)" stroke="white" stroke-width="2" pointer-events="all" />
<text class="room-label" pointer-events="none" fill="white" id="F1-2" style="white-space: pre" xml:space="preserve" font-family="Inter" font-size="32" letter-spacing="0em"><tspan x="312" y="737.136">F1-2</tspan></text>
</a>
<a data-room="F1-8" class="cursor-pointer group">
<polygon class="room-area" points="546.5,589.5 546.5,780.5 762.5,780.5 762.5,589.5" fill="rgba(120, 113, 108, 0.12)" stroke="white" stroke-width="2" pointer-events="all" />
<text class="room-label" pointer-events="none" fill="white" id="F1-8" style="white-space: pre" xml:space="preserve" font-family="Inter" font-size="32" letter-spacing="0em"><tspan x="619" y="692.136">F1-8</tspan></text>
</a>
<a data-room="F1-9" class="cursor-pointer group">
<polygon class="room-area" points="546.5,469.5 546.5,585.5 762.5,585.5 762.5,512.0 641.0,512.0 639.0,469.5" fill="rgba(120, 113, 108, 0.12)" stroke="white" stroke-width="2" pointer-events="all" />
<text class="room-label" pointer-events="none" fill="white" id="F1-9" style="white-space: pre" xml:space="preserve" font-family="Inter" font-size="32" letter-spacing="0em"><tspan x="609" y="557.136">F1-9</tspan></text>
</a>
<a data-room="F1-10" class="cursor-pointer group">
<polygon class="room-area" points="546.5,392.0 546.5,465.5 641.0,465.5 643.0,508.0 762.5,508.0 762.5,392.0" fill="rgba(120, 113, 108, 0.12)" stroke="white" stroke-width="2" pointer-events="all" />
<text class="room-label" pointer-events="none" fill="white" id="F1-10" style="white-space: pre" xml:space="preserve" font-family="Inter" font-size="32" letter-spacing="0em"><tspan x="610" y="443.136">F1-10</tspan></text>
</a>
<a data-room="F1-11" class="cursor-pointer group">
<polygon class="room-area" points="567.0,100.0 565.0,313.0 723.5,313.0 723.5,100.0" fill="rgba(120, 113, 108, 0.12)" stroke="white" stroke-width="2" pointer-events="all" />
<text class="room-label" pointer-events="none" fill="white" id="F1-11" style="white-space: pre" xml:space="preserve" font-family="Inter" font-size="32" letter-spacing="0em"><tspan x="602" y="205.136">F1-11</tspan></text>
</a>
<a data-room="F1-12" class="cursor-pointer group">
<polygon class="room-area" points="406.5,247.5 406.5,313.0 561.0,313.0 561.5,247.5" fill="rgba(120, 113, 108, 0.12)" stroke="white" stroke-width="2" pointer-events="all" />
<text class="room-label" pointer-events="none" fill="white" id="F1-12" style="white-space: pre" xml:space="preserve" font-family="Inter" font-size="32" letter-spacing="0em"><tspan x="440" y="291.136">F1-12</tspan></text>
</a>
<a data-room="F1-13" class="cursor-pointer group">
<polygon class="room-area" points="406.5,100.0 406.5,243.5 561.5,243.5 563.0,100.0" fill="rgba(120, 113, 108, 0.12)" stroke="white" stroke-width="2" pointer-events="all" />
<text class="room-label" pointer-events="none" fill="white" id="F1-13" style="white-space: pre" xml:space="preserve" font-family="Inter" font-size="32" letter-spacing="0em"><tspan x="440" y="185.136">F1-13</tspan></text>
</a>
<a data-room="F1-14" class="cursor-pointer group">
<polygon class="room-area" points="113.0,128.5 113.0,216.5 215.0,216.5 231.0,253.5 300.0,261.0 301.5,236.5 330.5,236.0 330.5,128.5" fill="rgba(120, 113, 108, 0.12)" stroke="white" stroke-width="2" pointer-events="all" />
<text class="room-label" pointer-events="none" fill="white" id="F1-14" style="white-space: pre" xml:space="preserve" font-family="Inter" font-size="32" letter-spacing="0em"><tspan x="174" y="182.136">F1-14</tspan></text>
</a>
<a data-room="F1-15" class="cursor-pointer group">
<polygon class="room-area" points="113.0,220.5 113.0,330.5 330.5,330.5 330.5,290.5 301.5,290.0 300.0,264.5 228.5,257.0 213.5,220.5" fill="rgba(120, 113, 108, 0.12)" stroke="white" stroke-width="2" pointer-events="all" />
<text class="room-label" pointer-events="none" fill="white" id="F1-15" style="white-space: pre" xml:space="preserve" font-family="Inter" font-size="32" letter-spacing="0em"><tspan x="164" y="299.136">F1-15</tspan></text>
</a>
<a data-room="F1-16" class="cursor-pointer group">
<polygon class="room-area" points="113.0,334.5 113.0,446.0 330.5,446.0 330.5,334.5" fill="rgba(120, 113, 108, 0.12)" stroke="white" stroke-width="2" pointer-events="all" />
<text class="room-label" pointer-events="none" fill="white" id="F1-16" style="white-space: pre" xml:space="preserve" font-family="Inter" font-size="32" letter-spacing="0em"><tspan x="164" y="396.136">F1-16</tspan></text>
</a>
</g>
</svg>
